<?xml version="1.0" encoding="UTF-8"?><svg xmlns="http://www.w3.org/2000/svg" xmlns:xlink="http://www.w3.org/1999/xlink" fill-opacity="1" color-rendering="auto" color-interpolation="auto" stroke="black" text-rendering="auto" stroke-linecap="square" width="601" stroke-miterlimit="10" stroke-opacity="1" shape-rendering="auto" fill="black" stroke-dasharray="none" font-weight="normal" stroke-width="1" height="265" font-family="'Dialog'" font-style="normal" stroke-linejoin="miter" font-size="12" stroke-dashoffset="0" image-rendering="auto">
  <!--Generated by ySVG 2.5-->
  <defs id="genericDefs"/>
  <g>
    <defs id="defs1">
      <clipPath clipPathUnits="userSpaceOnUse" id="clipPath1">
        <path d="M0 0 L601 0 L601 265 L0 265 L0 0 Z"/>
      </clipPath>
      <clipPath clipPathUnits="userSpaceOnUse" id="clipPath2">
        <path d="M74 92 L675 92 L675 357 L74 357 L74 92 Z"/>
      </clipPath>
    </defs>
    <g fill="white" text-rendering="geometricPrecision" shape-rendering="geometricPrecision" transform="translate(-74,-92)" stroke="white">
      <rect x="74" width="601" height="265" y="92" clip-path="url(#clipPath2)" stroke="none"/>
    </g>
    <g fill="rgb(204,255,255)" text-rendering="geometricPrecision" shape-rendering="geometricPrecision" transform="matrix(1,0,0,1,-74,-92)" stroke="rgb(204,255,255)">
      <rect x="89" width="52" height="50" y="107" clip-path="url(#clipPath2)" stroke="none"/>
    </g>
    <g font-size="20" stroke-linecap="butt" transform="matrix(1,0,0,1,-74,-92)" text-rendering="geometricPrecision" font-family="'Arial'" shape-rendering="geometricPrecision" stroke-miterlimit="1.45">
      <text x="109.4385" xml:space="preserve" y="138.9336" clip-path="url(#clipPath2)" stroke="none">1</text>
      <rect x="89" y="107" clip-path="url(#clipPath2)" fill="none" width="52" height="50" stroke-width="2"/>
    </g>
    <g fill="rgb(204,255,255)" text-rendering="geometricPrecision" shape-rendering="geometricPrecision" transform="matrix(1,0,0,1,-74,-92)" stroke="rgb(204,255,255)">
      <rect x="141" width="52" height="50" y="107" clip-path="url(#clipPath2)" stroke="none"/>
    </g>
    <g font-size="20" stroke-linecap="butt" transform="matrix(1,0,0,1,-74,-92)" text-rendering="geometricPrecision" font-family="'Arial'" shape-rendering="geometricPrecision" stroke-miterlimit="1.45">
      <text x="161.4385" xml:space="preserve" y="138.9336" clip-path="url(#clipPath2)" stroke="none">1</text>
      <rect x="141" y="107" clip-path="url(#clipPath2)" fill="none" width="52" height="50" stroke-width="2"/>
    </g>
    <g fill="rgb(204,255,255)" text-rendering="geometricPrecision" shape-rendering="geometricPrecision" transform="matrix(1,0,0,1,-74,-92)" stroke="rgb(204,255,255)">
      <rect x="193" width="52" height="50" y="107" clip-path="url(#clipPath2)" stroke="none"/>
    </g>
    <g font-size="20" stroke-linecap="butt" transform="matrix(1,0,0,1,-74,-92)" text-rendering="geometricPrecision" font-family="'Arial'" shape-rendering="geometricPrecision" stroke-miterlimit="1.45">
      <text x="213.4385" xml:space="preserve" y="138.9336" clip-path="url(#clipPath2)" stroke="none">1</text>
      <rect x="193" y="107" clip-path="url(#clipPath2)" fill="none" width="52" height="50" stroke-width="2"/>
    </g>
    <g fill="rgb(204,255,255)" text-rendering="geometricPrecision" shape-rendering="geometricPrecision" transform="matrix(1,0,0,1,-74,-92)" stroke="rgb(204,255,255)">
      <rect x="245" width="52" height="50" y="107" clip-path="url(#clipPath2)" stroke="none"/>
    </g>
    <g font-size="20" stroke-linecap="butt" transform="matrix(1,0,0,1,-74,-92)" text-rendering="geometricPrecision" font-family="'Arial'" shape-rendering="geometricPrecision" stroke-miterlimit="1.45">
      <text x="265.4385" xml:space="preserve" y="138.9336" clip-path="url(#clipPath2)" stroke="none">0</text>
      <rect x="245" y="107" clip-path="url(#clipPath2)" fill="none" width="52" height="50" stroke-width="2"/>
    </g>
    <g fill="rgb(204,255,255)" text-rendering="geometricPrecision" shape-rendering="geometricPrecision" transform="matrix(1,0,0,1,-74,-92)" stroke="rgb(204,255,255)">
      <rect x="297" width="52" height="50" y="107" clip-path="url(#clipPath2)" stroke="none"/>
    </g>
    <g font-size="20" stroke-linecap="butt" transform="matrix(1,0,0,1,-74,-92)" text-rendering="geometricPrecision" font-family="'Arial'" shape-rendering="geometricPrecision" stroke-miterlimit="1.45">
      <text x="317.4385" xml:space="preserve" y="138.9336" clip-path="url(#clipPath2)" stroke="none">0</text>
      <rect x="297" y="107" clip-path="url(#clipPath2)" fill="none" width="52" height="50" stroke-width="2"/>
    </g>
    <g fill="rgb(255,255,153)" text-rendering="geometricPrecision" shape-rendering="geometricPrecision" transform="matrix(1,0,0,1,-74,-92)" stroke="rgb(255,255,153)">
      <rect x="400" width="52" height="50" y="107" clip-path="url(#clipPath2)" stroke="none"/>
    </g>
    <g font-size="20" stroke-linecap="butt" transform="matrix(1,0,0,1,-74,-92)" text-rendering="geometricPrecision" font-family="'Arial'" shape-rendering="geometricPrecision" stroke-miterlimit="1.45">
      <text x="420.4385" xml:space="preserve" y="138.9336" clip-path="url(#clipPath2)" stroke="none">1</text>
      <rect x="400" y="107" clip-path="url(#clipPath2)" fill="none" width="52" height="50" stroke-width="2"/>
    </g>
    <g fill="rgb(255,255,153)" text-rendering="geometricPrecision" shape-rendering="geometricPrecision" transform="matrix(1,0,0,1,-74,-92)" stroke="rgb(255,255,153)">
      <rect x="452" width="52" height="50" y="107" clip-path="url(#clipPath2)" stroke="none"/>
    </g>
    <g font-size="20" stroke-linecap="butt" transform="matrix(1,0,0,1,-74,-92)" text-rendering="geometricPrecision" font-family="'Arial'" shape-rendering="geometricPrecision" stroke-miterlimit="1.45">
      <text x="472.4385" xml:space="preserve" y="138.9336" clip-path="url(#clipPath2)" stroke="none">0</text>
      <rect x="452" y="107" clip-path="url(#clipPath2)" fill="none" width="52" height="50" stroke-width="2"/>
    </g>
    <g fill="rgb(255,255,153)" text-rendering="geometricPrecision" shape-rendering="geometricPrecision" transform="matrix(1,0,0,1,-74,-92)" stroke="rgb(255,255,153)">
      <rect x="504" width="52" height="50" y="107" clip-path="url(#clipPath2)" stroke="none"/>
    </g>
    <g font-size="20" stroke-linecap="butt" transform="matrix(1,0,0,1,-74,-92)" text-rendering="geometricPrecision" font-family="'Arial'" shape-rendering="geometricPrecision" stroke-miterlimit="1.45">
      <text x="524.4385" xml:space="preserve" y="138.9336" clip-path="url(#clipPath2)" stroke="none">1</text>
      <rect x="504" y="107" clip-path="url(#clipPath2)" fill="none" width="52" height="50" stroke-width="2"/>
    </g>
    <g fill="rgb(255,255,153)" text-rendering="geometricPrecision" shape-rendering="geometricPrecision" transform="matrix(1,0,0,1,-74,-92)" stroke="rgb(255,255,153)">
      <rect x="556" width="52" height="50" y="107" clip-path="url(#clipPath2)" stroke="none"/>
    </g>
    <g font-size="20" stroke-linecap="butt" transform="matrix(1,0,0,1,-74,-92)" text-rendering="geometricPrecision" font-family="'Arial'" shape-rendering="geometricPrecision" stroke-miterlimit="1.45">
      <text x="576.4385" xml:space="preserve" y="138.9336" clip-path="url(#clipPath2)" stroke="none">1</text>
      <rect x="556" y="107" clip-path="url(#clipPath2)" fill="none" width="52" height="50" stroke-width="2"/>
    </g>
    <g fill="rgb(255,255,153)" text-rendering="geometricPrecision" shape-rendering="geometricPrecision" transform="matrix(1,0,0,1,-74,-92)" stroke="rgb(255,255,153)">
      <rect x="608" width="52" height="50" y="107" clip-path="url(#clipPath2)" stroke="none"/>
    </g>
    <g font-size="20" stroke-linecap="butt" transform="matrix(1,0,0,1,-74,-92)" text-rendering="geometricPrecision" font-family="'Arial'" shape-rendering="geometricPrecision" stroke-miterlimit="1.45">
      <text x="628.4385" xml:space="preserve" y="138.9336" clip-path="url(#clipPath2)" stroke="none">0</text>
      <rect x="608" y="107" clip-path="url(#clipPath2)" fill="none" width="52" height="50" stroke-width="2"/>
    </g>
    <g fill="rgb(204,255,255)" text-rendering="geometricPrecision" shape-rendering="geometricPrecision" transform="matrix(1,0,0,1,-74,-92)" stroke="rgb(204,255,255)">
      <rect x="400" width="52" height="50" y="292" clip-path="url(#clipPath2)" stroke="none"/>
    </g>
    <g font-size="20" stroke-linecap="butt" transform="matrix(1,0,0,1,-74,-92)" text-rendering="geometricPrecision" font-family="'Arial'" shape-rendering="geometricPrecision" stroke-miterlimit="1.45">
      <text x="420.4385" xml:space="preserve" y="323.9336" clip-path="url(#clipPath2)" stroke="none">1</text>
      <rect x="400" y="292" clip-path="url(#clipPath2)" fill="none" width="52" height="50" stroke-width="2"/>
    </g>
    <g fill="rgb(204,255,255)" text-rendering="geometricPrecision" shape-rendering="geometricPrecision" transform="matrix(1,0,0,1,-74,-92)" stroke="rgb(204,255,255)">
      <rect x="452" width="52" height="50" y="292" clip-path="url(#clipPath2)" stroke="none"/>
    </g>
    <g font-size="20" stroke-linecap="butt" transform="matrix(1,0,0,1,-74,-92)" text-rendering="geometricPrecision" font-family="'Arial'" shape-rendering="geometricPrecision" stroke-miterlimit="1.45">
      <text x="472.4385" xml:space="preserve" y="323.9336" clip-path="url(#clipPath2)" stroke="none">1</text>
      <rect x="452" y="292" clip-path="url(#clipPath2)" fill="none" width="52" height="50" stroke-width="2"/>
    </g>
    <g fill="rgb(255,255,153)" text-rendering="geometricPrecision" shape-rendering="geometricPrecision" transform="matrix(1,0,0,1,-74,-92)" stroke="rgb(255,255,153)">
      <rect x="504" width="52" height="50" y="292" clip-path="url(#clipPath2)" stroke="none"/>
    </g>
    <g font-size="20" stroke-linecap="butt" transform="matrix(1,0,0,1,-74,-92)" text-rendering="geometricPrecision" font-family="'Arial'" shape-rendering="geometricPrecision" stroke-miterlimit="1.45">
      <text x="524.4385" xml:space="preserve" y="323.9336" clip-path="url(#clipPath2)" stroke="none">1</text>
      <rect x="504" y="292" clip-path="url(#clipPath2)" fill="none" width="52" height="50" stroke-width="2"/>
    </g>
    <g fill="rgb(255,255,153)" text-rendering="geometricPrecision" shape-rendering="geometricPrecision" transform="matrix(1,0,0,1,-74,-92)" stroke="rgb(255,255,153)">
      <rect x="556" width="52" height="50" y="292" clip-path="url(#clipPath2)" stroke="none"/>
    </g>
    <g font-size="20" stroke-linecap="butt" transform="matrix(1,0,0,1,-74,-92)" text-rendering="geometricPrecision" font-family="'Arial'" shape-rendering="geometricPrecision" stroke-miterlimit="1.45">
      <text x="576.4385" xml:space="preserve" y="323.9336" clip-path="url(#clipPath2)" stroke="none">1</text>
      <rect x="556" y="292" clip-path="url(#clipPath2)" fill="none" width="52" height="50" stroke-width="2"/>
    </g>
    <g fill="rgb(204,255,255)" text-rendering="geometricPrecision" shape-rendering="geometricPrecision" transform="matrix(1,0,0,1,-74,-92)" stroke="rgb(204,255,255)">
      <rect x="608" width="52" height="50" y="292" clip-path="url(#clipPath2)" stroke="none"/>
    </g>
    <g font-size="20" stroke-linecap="butt" transform="matrix(1,0,0,1,-74,-92)" text-rendering="geometricPrecision" font-family="'Arial'" shape-rendering="geometricPrecision" stroke-miterlimit="1.45">
      <text x="628.4385" xml:space="preserve" y="323.9336" clip-path="url(#clipPath2)" stroke="none">0</text>
      <rect x="608" y="292" clip-path="url(#clipPath2)" fill="none" width="52" height="50" stroke-width="2"/>
    </g>
    <g fill="rgb(255,255,153)" text-rendering="geometricPrecision" shape-rendering="geometricPrecision" transform="matrix(1,0,0,1,-74,-92)" stroke="rgb(255,255,153)">
      <rect x="89" width="52" height="50" y="292" clip-path="url(#clipPath2)" stroke="none"/>
    </g>
    <g font-size="20" stroke-linecap="butt" transform="matrix(1,0,0,1,-74,-92)" text-rendering="geometricPrecision" font-family="'Arial'" shape-rendering="geometricPrecision" stroke-miterlimit="1.45">
      <text x="109.4385" xml:space="preserve" y="323.9336" clip-path="url(#clipPath2)" stroke="none">1</text>
      <rect x="89" y="292" clip-path="url(#clipPath2)" fill="none" width="52" height="50" stroke-width="2"/>
    </g>
    <g fill="rgb(255,255,153)" text-rendering="geometricPrecision" shape-rendering="geometricPrecision" transform="matrix(1,0,0,1,-74,-92)" stroke="rgb(255,255,153)">
      <rect x="141" width="52" height="50" y="292" clip-path="url(#clipPath2)" stroke="none"/>
    </g>
    <g font-size="20" stroke-linecap="butt" transform="matrix(1,0,0,1,-74,-92)" text-rendering="geometricPrecision" font-family="'Arial'" shape-rendering="geometricPrecision" stroke-miterlimit="1.45">
      <text x="161.4385" xml:space="preserve" y="323.9336" clip-path="url(#clipPath2)" stroke="none">0</text>
      <rect x="141" y="292" clip-path="url(#clipPath2)" fill="none" width="52" height="50" stroke-width="2"/>
    </g>
    <g fill="rgb(204,255,255)" text-rendering="geometricPrecision" shape-rendering="geometricPrecision" transform="matrix(1,0,0,1,-74,-92)" stroke="rgb(204,255,255)">
      <rect x="193" width="52" height="50" y="292" clip-path="url(#clipPath2)" stroke="none"/>
    </g>
    <g font-size="20" stroke-linecap="butt" transform="matrix(1,0,0,1,-74,-92)" text-rendering="geometricPrecision" font-family="'Arial'" shape-rendering="geometricPrecision" stroke-miterlimit="1.45">
      <text x="213.4385" xml:space="preserve" y="323.9336" clip-path="url(#clipPath2)" stroke="none">1</text>
      <rect x="193" y="292" clip-path="url(#clipPath2)" fill="none" width="52" height="50" stroke-width="2"/>
    </g>
    <g fill="rgb(204,255,255)" text-rendering="geometricPrecision" shape-rendering="geometricPrecision" transform="matrix(1,0,0,1,-74,-92)" stroke="rgb(204,255,255)">
      <rect x="245" width="52" height="50" y="292" clip-path="url(#clipPath2)" stroke="none"/>
    </g>
    <g font-size="20" stroke-linecap="butt" transform="matrix(1,0,0,1,-74,-92)" text-rendering="geometricPrecision" font-family="'Arial'" shape-rendering="geometricPrecision" stroke-miterlimit="1.45">
      <text x="265.4385" xml:space="preserve" y="323.9336" clip-path="url(#clipPath2)" stroke="none">0</text>
      <rect x="245" y="292" clip-path="url(#clipPath2)" fill="none" width="52" height="50" stroke-width="2"/>
    </g>
    <g fill="rgb(255,255,153)" text-rendering="geometricPrecision" shape-rendering="geometricPrecision" transform="matrix(1,0,0,1,-74,-92)" stroke="rgb(255,255,153)">
      <rect x="297" width="52" height="50" y="292" clip-path="url(#clipPath2)" stroke="none"/>
    </g>
    <g font-size="20" stroke-linecap="butt" transform="matrix(1,0,0,1,-74,-92)" text-rendering="geometricPrecision" font-family="'Arial'" shape-rendering="geometricPrecision" stroke-miterlimit="1.45">
      <text x="317.4385" xml:space="preserve" y="323.9336" clip-path="url(#clipPath2)" stroke="none">0</text>
      <rect x="297" y="292" clip-path="url(#clipPath2)" fill="none" width="52" height="50" stroke-width="2"/>
    </g>
    <g stroke-linecap="butt" transform="matrix(1,0,0,1,-74,-92)" text-rendering="geometricPrecision" shape-rendering="geometricPrecision" stroke-dasharray="12,4" stroke-width="2" stroke-miterlimit="1.45">
      <path fill="none" d="M115 157 L115 246 L426 246 L426 283" clip-path="url(#clipPath2)"/>
      <path d="M426 292 L431.625 278.5 L426 281.875 L420.375 278.5 Z" clip-path="url(#clipPath2)" stroke="none"/>
      <path fill="none" d="M167 157 L167 207 L478 207 L478 283" clip-path="url(#clipPath2)"/>
      <path d="M478 292 L483.625 278.5 L478 281.875 L472.375 278.5 Z" clip-path="url(#clipPath2)" stroke="none"/>
      <path fill="none" stroke-dasharray="none" d="M530 157 L530 283" clip-path="url(#clipPath2)"/>
      <path stroke-dasharray="none" d="M530 292 L535.625 278.5 L530 281.875 L524.375 278.5 Z" clip-path="url(#clipPath2)" stroke="none"/>
      <path fill="none" stroke-dasharray="none" d="M582 157 L582 283" clip-path="url(#clipPath2)"/>
      <path stroke-dasharray="none" d="M582 292 L587.625 278.5 L582 281.875 L576.375 278.5 Z" clip-path="url(#clipPath2)" stroke="none"/>
      <path fill="none" d="M323 157 L323 196 L634 237 L634 283" clip-path="url(#clipPath2)"/>
      <path d="M634 292 L639.625 278.5 L634 281.875 L628.375 278.5 Z" clip-path="url(#clipPath2)" stroke="none"/>
      <path fill="none" stroke-dasharray="none" d="M426 157 L426 229 L115 257 L115 283" clip-path="url(#clipPath2)"/>
      <path stroke-dasharray="none" d="M115 292 L120.625 278.5 L115 281.875 L109.375 278.5 Z" clip-path="url(#clipPath2)" stroke="none"/>
      <path fill="none" stroke-dasharray="none" d="M478 157 L478 190 L167 225 L167 283" clip-path="url(#clipPath2)"/>
      <path stroke-dasharray="none" d="M167 292 L172.625 278.5 L167 281.875 L161.375 278.5 Z" clip-path="url(#clipPath2)" stroke="none"/>
      <path fill="none" d="M219 157 L219 283" clip-path="url(#clipPath2)"/>
      <path d="M219 292 L224.625 278.5 L219 281.875 L213.375 278.5 Z" clip-path="url(#clipPath2)" stroke="none"/>
      <path fill="none" stroke-dasharray="none" d="M271 157 L271 283" clip-path="url(#clipPath2)"/>
      <path stroke-dasharray="none" d="M271 292 L276.625 278.5 L271 281.875 L265.375 278.5 Z" clip-path="url(#clipPath2)" stroke="none"/>
      <path fill="none" stroke-dasharray="none" d="M634 157 L634 191 L323 224 L323 283" clip-path="url(#clipPath2)"/>
      <path stroke-dasharray="none" d="M323 292 L328.625 278.5 L323 281.875 L317.375 278.5 Z" clip-path="url(#clipPath2)" stroke="none"/>
    </g>
  </g>
</svg>
