<?xml version="1.0" encoding="UTF-8" standalone="no"?>
<svg
   xmlns:dc="http://purl.org/dc/elements/1.1/"
   xmlns:cc="http://creativecommons.org/ns#"
   xmlns:rdf="http://www.w3.org/1999/02/22-rdf-syntax-ns#"
   xmlns:svg="http://www.w3.org/2000/svg"
   xmlns="http://www.w3.org/2000/svg"
   xmlns:sodipodi="http://sodipodi.sourceforge.net/DTD/sodipodi-0.dtd"
   xmlns:inkscape="http://www.inkscape.org/namespaces/inkscape"
   width="638.62195"
   height="329.19864"
   viewBox="0 0 18023.33 9290.7171"
   version="1.1"
   xml:space="preserve"
   id="svg3778"
   inkscape:version="0.48.3.1 r9886"
   sodipodi:docname="plotTorneio.svg"
   style="stroke-width:28.22200012;stroke-linejoin:round"><metadata
   id="metadata4048"><rdf:RDF><cc:Work
       rdf:about=""><dc:format>image/svg+xml</dc:format><dc:type
         rdf:resource="http://purl.org/dc/dcmitype/StillImage" /><dc:title></dc:title></cc:Work></rdf:RDF></metadata><defs
   id="defs4046" /><sodipodi:namedview
   pagecolor="#ffffff"
   bordercolor="#666666"
   borderopacity="1"
   objecttolerance="10"
   gridtolerance="10"
   guidetolerance="10"
   inkscape:pageopacity="0"
   inkscape:pageshadow="2"
   inkscape:window-width="1366"
   inkscape:window-height="709"
   id="namedview4044"
   showgrid="false"
   fit-margin-top="0"
   fit-margin-left="0"
   fit-margin-right="0"
   fit-margin-bottom="0"
   inkscape:zoom="1.3918488"
   inkscape:cx="315.31097"
   inkscape:cy="164.5993"
   inkscape:window-x="0"
   inkscape:window-y="27"
   inkscape:window-maximized="1"
   inkscape:current-layer="svg3778"
   showguides="true"
   inkscape:guide-bbox="true" />
 <path
   d="m 8239.0957,8999 -7999.99997,0 0,-8999 15999.00027,0 0,8999 -7999.0003,0 z"
   id="path3780"
   inkscape:connector-curvature="0"
   style="fill:#ffffff;stroke:none" />
 
 
 
 
 
 
 
 
 
 
 
 
 
 
 
 
 
 
 
 
 
 
 
 
 
 
 
 
 
 
 
 
 
 
 
 
 
 
 
 
 
 
 
 
 
 
 
 
 
 
 
 
 
 
 
 
 
 
 
 
 
 
 
 <text
   class="TextShape"
   id="text4010"
   x="5399.5654"
   y="-1673.1898"
   style="font-size:12px"><tspan
     class="TextParagraph"
     font-size="353px"
     font-weight="400"
     id="tspan4012"
     style="font-size:353px;font-weight:400;font-family:Liberation Sans"><tspan
       class="TextPosition"
       x="12982.565"
       y="4893.8101"
       id="tspan4014"
       style="fill:#000000;stroke:none">h(x) = 8757.351 ln(x) - 4840.016</tspan></tspan></text>

 <path
   d="m 11994.096,4250 800,0"
   id="path4024"
   inkscape:connector-curvature="0"
   style="fill:none;stroke:#004586;stroke-width:80;stroke-linejoin:round" />
 <path
   d="m 11994.096,4747 800,0"
   id="path4026"
   inkscape:connector-curvature="0"
   style="fill:none;stroke:#c5000b;stroke-width:100;stroke-linejoin:round" />
 <text
   class="TextShape"
   id="text4028"
   y="6.3281252e-05"
   x="239.09572"
   style="font-size:12px"><tspan
     class="TextParagraph"
     font-size="353px"
     font-weight="400"
     id="tspan4030"
     style="font-size:353px;font-weight:400;font-family:Liberation Sans"><tspan
       class="TextPosition"
       x="12894.096"
       y="4370"
       id="tspan4032"><tspan
         id="tspan4034"
         style="fill:#000000;stroke:none">Média</tspan></tspan></tspan></text>

 <text
   class="TextShape"
   id="text4036"
   y="6.3281252e-05"
   x="239.09572"
   style="font-size:12px"><tspan
     class="TextParagraph"
     font-size="353px"
     font-weight="400"
     id="tspan4038"
     style="font-size:353px;font-weight:400;font-family:Liberation Sans"><tspan
       class="TextPosition"
       x="12894.096"
       y="4867"
       id="tspan4040"><tspan
         id="tspan4042"
         style="fill:#000000;stroke:none" /></tspan></tspan></text>

<g
   id="g4077"
   transform="translate(239.09573,9.9999999e-5)"><path
     style="fill:none;stroke:#b3b3b3;stroke-linejoin:round"
     inkscape:connector-curvature="0"
     id="path3782"
     d="m 6380,7751.9999 -4433,0 0,-6698 8865,0 0,6698 -4432,0 z" /><path
     style="fill:none;stroke:#b3b3b3;stroke-linejoin:round"
     inkscape:connector-curvature="0"
     id="path3784"
     d="m 10812,7750.9999 -8865,0" /><path
     style="fill:none;stroke:#b3b3b3;stroke-linejoin:round"
     inkscape:connector-curvature="0"
     id="path3786"
     d="m 10812,6633.9999 -8865,0" /><path
     style="fill:none;stroke:#b3b3b3;stroke-linejoin:round"
     inkscape:connector-curvature="0"
     id="path3788"
     d="m 10812,5517.9999 -8865,0" /><path
     style="fill:none;stroke:#b3b3b3;stroke-linejoin:round"
     inkscape:connector-curvature="0"
     id="path3790"
     d="m 10812,4401.9999 -8865,0" /><path
     style="fill:none;stroke:#b3b3b3;stroke-linejoin:round"
     inkscape:connector-curvature="0"
     id="path3792"
     d="m 10812,3285.9999 -8865,0" /><path
     style="fill:none;stroke:#b3b3b3;stroke-linejoin:round"
     inkscape:connector-curvature="0"
     id="path3794"
     d="m 10812,2168.9999 -8865,0" /><path
     style="fill:none;stroke:#b3b3b3;stroke-linejoin:round"
     inkscape:connector-curvature="0"
     id="path3796"
     d="m 10812,1052.9999 -8865,0" /><path
     style="fill:none;stroke:#b3b3b3;stroke-linejoin:round"
     inkscape:connector-curvature="0"
     id="path3798"
     d="m 1947,7900.9999 0,-150" /><path
     style="fill:none;stroke:#b3b3b3;stroke-linejoin:round"
     inkscape:connector-curvature="0"
     id="path3800"
     d="m 1947,7900.9999 0,-150" /><path
     style="fill:none;stroke:#b3b3b3;stroke-linejoin:round"
     inkscape:connector-curvature="0"
     id="path3802"
     d="m 2932,7900.9999 0,-150" /><path
     style="fill:none;stroke:#b3b3b3;stroke-linejoin:round"
     inkscape:connector-curvature="0"
     id="path3804"
     d="m 2932,7900.9999 0,-150" /><path
     style="fill:none;stroke:#b3b3b3;stroke-linejoin:round"
     inkscape:connector-curvature="0"
     id="path3806"
     d="m 3917,7900.9999 0,-150" /><path
     style="fill:none;stroke:#b3b3b3;stroke-linejoin:round"
     inkscape:connector-curvature="0"
     id="path3808"
     d="m 3917,7900.9999 0,-150" /><path
     style="fill:none;stroke:#b3b3b3;stroke-linejoin:round"
     inkscape:connector-curvature="0"
     id="path3810"
     d="m 4902,7900.9999 0,-150" /><path
     style="fill:none;stroke:#b3b3b3;stroke-linejoin:round"
     inkscape:connector-curvature="0"
     id="path3812"
     d="m 4902,7900.9999 0,-150" /><path
     style="fill:none;stroke:#b3b3b3;stroke-linejoin:round"
     inkscape:connector-curvature="0"
     id="path3814"
     d="m 5887,7900.9999 0,-150" /><path
     style="fill:none;stroke:#b3b3b3;stroke-linejoin:round"
     inkscape:connector-curvature="0"
     id="path3816"
     d="m 5887,7900.9999 0,-150" /><path
     style="fill:none;stroke:#b3b3b3;stroke-linejoin:round"
     inkscape:connector-curvature="0"
     id="path3818"
     d="m 6872,7900.9999 0,-150" /><path
     style="fill:none;stroke:#b3b3b3;stroke-linejoin:round"
     inkscape:connector-curvature="0"
     id="path3820"
     d="m 6872,7900.9999 0,-150" /><path
     style="fill:none;stroke:#b3b3b3;stroke-linejoin:round"
     inkscape:connector-curvature="0"
     id="path3822"
     d="m 7857,7900.9999 0,-150" /><path
     style="fill:none;stroke:#b3b3b3;stroke-linejoin:round"
     inkscape:connector-curvature="0"
     id="path3824"
     d="m 7857,7900.9999 0,-150" /><path
     style="fill:none;stroke:#b3b3b3;stroke-linejoin:round"
     inkscape:connector-curvature="0"
     id="path3826"
     d="m 8841,7900.9999 0,-150" /><path
     style="fill:none;stroke:#b3b3b3;stroke-linejoin:round"
     inkscape:connector-curvature="0"
     id="path3828"
     d="m 8841,7900.9999 0,-150" /><path
     style="fill:none;stroke:#b3b3b3;stroke-linejoin:round"
     inkscape:connector-curvature="0"
     id="path3830"
     d="m 9826,7900.9999 0,-150" /><path
     style="fill:none;stroke:#b3b3b3;stroke-linejoin:round"
     inkscape:connector-curvature="0"
     id="path3832"
     d="m 9826,7900.9999 0,-150" /><path
     style="fill:none;stroke:#b3b3b3;stroke-linejoin:round"
     inkscape:connector-curvature="0"
     id="path3834"
     d="m 10812,7900.9999 0,-150" /><path
     style="fill:none;stroke:#b3b3b3;stroke-linejoin:round"
     inkscape:connector-curvature="0"
     id="path3836"
     d="m 10812,7900.9999 0,-150" /><path
     style="fill:none;stroke:#b3b3b3;stroke-linejoin:round"
     inkscape:connector-curvature="0"
     id="path3838"
     d="m 1947,7750.9999 8865,0" /><path
     style="fill:none;stroke:#b3b3b3;stroke-linejoin:round"
     inkscape:connector-curvature="0"
     id="path3840"
     d="m 1797,7750.9999 150,0" /><path
     style="fill:none;stroke:#b3b3b3;stroke-linejoin:round"
     inkscape:connector-curvature="0"
     id="path3842"
     d="m 1797,7750.9999 150,0" /><path
     style="fill:none;stroke:#b3b3b3;stroke-linejoin:round"
     inkscape:connector-curvature="0"
     id="path3844"
     d="m 1797,6633.9999 150,0" /><path
     style="fill:none;stroke:#b3b3b3;stroke-linejoin:round"
     inkscape:connector-curvature="0"
     id="path3846"
     d="m 1797,6633.9999 150,0" /><path
     style="fill:none;stroke:#b3b3b3;stroke-linejoin:round"
     inkscape:connector-curvature="0"
     id="path3848"
     d="m 1797,5517.9999 150,0" /><path
     style="fill:none;stroke:#b3b3b3;stroke-linejoin:round"
     inkscape:connector-curvature="0"
     id="path3850"
     d="m 1797,5517.9999 150,0" /><path
     style="fill:none;stroke:#b3b3b3;stroke-linejoin:round"
     inkscape:connector-curvature="0"
     id="path3852"
     d="m 1797,4401.9999 150,0" /><path
     style="fill:none;stroke:#b3b3b3;stroke-linejoin:round"
     inkscape:connector-curvature="0"
     id="path3854"
     d="m 1797,4401.9999 150,0" /><path
     style="fill:none;stroke:#b3b3b3;stroke-linejoin:round"
     inkscape:connector-curvature="0"
     id="path3856"
     d="m 1797,3284.9999 150,0" /><path
     style="fill:none;stroke:#b3b3b3;stroke-linejoin:round"
     inkscape:connector-curvature="0"
     id="path3858"
     d="m 1797,3284.9999 150,0" /><path
     style="fill:none;stroke:#b3b3b3;stroke-linejoin:round"
     inkscape:connector-curvature="0"
     id="path3860"
     d="m 1797,2168.9999 150,0" /><path
     style="fill:none;stroke:#b3b3b3;stroke-linejoin:round"
     inkscape:connector-curvature="0"
     id="path3862"
     d="m 1797,2168.9999 150,0" /><path
     style="fill:none;stroke:#b3b3b3;stroke-linejoin:round"
     inkscape:connector-curvature="0"
     id="path3864"
     d="m 1797,1052.9999 150,0" /><path
     style="fill:none;stroke:#b3b3b3;stroke-linejoin:round"
     inkscape:connector-curvature="0"
     id="path3866"
     d="m 1797,1052.9999 150,0" /><path
     style="fill:none;stroke:#b3b3b3;stroke-linejoin:round"
     inkscape:connector-curvature="0"
     id="path3868"
     d="m 1947,7750.9999 0,-6698" /><path
     style="fill:none;stroke:#c5000b;stroke-width:100;stroke-linejoin:round"
     inkscape:connector-curvature="0"
     id="path3872"
     d="m 2292,7750.9999 33,-195 90,-420 91,-345 90,-294 91,-255 91,-226 90,-202 91,-183 90,-168 91,-154 91,-143 90,-134 91,-124 90,-118 91,-110 90,-105 91,-98 91,-95 90,-90 91,-87 90,-82 91,-79 91,-77 90,-73 91,-71 90,-68 91,-66 90,-63 91,-62 91,-60 90,-58 91,-57 90,-54 91,-54 91,-52 90,-50 91,-49 90,-49 91,-46 91,-46 90,-45 91,-44 90,-43 91,-42 90,-41 91,-40 91,-39 90,-39 91,-38 90,-37 91,-36 91,-36 90,-35 91,-34 90,-34 91,-34 90,-32 91,-33 91,-31 90,-32 91,-30 90,-31 91,-29 90,-30 90,-29 91,-28 90,-28 91,-28 90,-27 91,-27 91,-27 90,-26 91,-26 90,-25 91,-25 91,-25 90,-25 91,-24 90,-24 91,-23 90,-24 91,-23 91,-23 90,-22 91,-23 90,-22" /><text
     y="-5.3829615e-05"
     id="text3874"
     class="TextShape"><tspan
       style="font-size:353px;font-weight:400;font-family:Liberation Sans"
       id="tspan3876"
       font-weight="400"
       font-size="353px"
       class="TextParagraph"><tspan
         id="tspan3878"
         y="8319"
         x="1854"
         class="TextPosition"><tspan
           style="fill:#000000;stroke:none"
           id="tspan3880">0</tspan></tspan></tspan></text>
<text
     y="-5.3829615e-05"
     id="text3882"
     class="TextShape"><tspan
       style="font-size:353px;font-weight:400;font-family:Liberation Sans"
       id="tspan3884"
       font-weight="400"
       font-size="353px"
       class="TextParagraph"><tspan
         id="tspan3886"
         y="8319"
         x="2839"
         class="TextPosition"><tspan
           style="fill:#000000;stroke:none"
           id="tspan3888">5</tspan></tspan></tspan></text>
<text
     y="-5.3829615e-05"
     id="text3890"
     class="TextShape"><tspan
       style="font-size:353px;font-weight:400;font-family:Liberation Sans"
       id="tspan3892"
       font-weight="400"
       font-size="353px"
       class="TextParagraph"><tspan
         id="tspan3894"
         y="8319"
         x="3732"
         class="TextPosition"><tspan
           style="fill:#000000;stroke:none"
           id="tspan3896">10</tspan></tspan></tspan></text>
<text
     y="-5.3829615e-05"
     id="text3898"
     class="TextShape"><tspan
       style="font-size:353px;font-weight:400;font-family:Liberation Sans"
       id="tspan3900"
       font-weight="400"
       font-size="353px"
       class="TextParagraph"><tspan
         id="tspan3902"
         y="8319"
         x="4717"
         class="TextPosition"><tspan
           style="fill:#000000;stroke:none"
           id="tspan3904">15</tspan></tspan></tspan></text>
<text
     y="-5.3829615e-05"
     id="text3906"
     class="TextShape"><tspan
       style="font-size:353px;font-weight:400;font-family:Liberation Sans"
       id="tspan3908"
       font-weight="400"
       font-size="353px"
       class="TextParagraph"><tspan
         id="tspan3910"
         y="8319"
         x="5702"
         class="TextPosition"><tspan
           style="fill:#000000;stroke:none"
           id="tspan3912">20</tspan></tspan></tspan></text>
<text
     y="-5.3829615e-05"
     id="text3914"
     class="TextShape"><tspan
       style="font-size:353px;font-weight:400;font-family:Liberation Sans"
       id="tspan3916"
       font-weight="400"
       font-size="353px"
       class="TextParagraph"><tspan
         id="tspan3918"
         y="8319"
         x="6687"
         class="TextPosition"><tspan
           style="fill:#000000;stroke:none"
           id="tspan3920">25</tspan></tspan></tspan></text>
<text
     y="-5.3829615e-05"
     id="text3922"
     class="TextShape"><tspan
       style="font-size:353px;font-weight:400;font-family:Liberation Sans"
       id="tspan3924"
       font-weight="400"
       font-size="353px"
       class="TextParagraph"><tspan
         id="tspan3926"
         y="8319"
         x="7672"
         class="TextPosition"><tspan
           style="fill:#000000;stroke:none"
           id="tspan3928">30</tspan></tspan></tspan></text>
<text
     y="-5.3829615e-05"
     id="text3930"
     class="TextShape"><tspan
       style="font-size:353px;font-weight:400;font-family:Liberation Sans"
       id="tspan3932"
       font-weight="400"
       font-size="353px"
       class="TextParagraph"><tspan
         id="tspan3934"
         y="8319"
         x="8657"
         class="TextPosition"><tspan
           style="fill:#000000;stroke:none"
           id="tspan3936">35</tspan></tspan></tspan></text>
<text
     y="-5.3829615e-05"
     id="text3938"
     class="TextShape"><tspan
       style="font-size:353px;font-weight:400;font-family:Liberation Sans"
       id="tspan3940"
       font-weight="400"
       font-size="353px"
       class="TextParagraph"><tspan
         id="tspan3942"
         y="8319"
         x="9642"
         class="TextPosition"><tspan
           style="fill:#000000;stroke:none"
           id="tspan3944">40</tspan></tspan></tspan></text>
<text
     y="-5.3829615e-05"
     id="text3946"
     class="TextShape"><tspan
       style="font-size:353px;font-weight:400;font-family:Liberation Sans"
       id="tspan3948"
       font-weight="400"
       font-size="353px"
       class="TextParagraph"><tspan
         id="tspan3950"
         y="8319"
         x="10628"
         class="TextPosition"><tspan
           style="fill:#000000;stroke:none"
           id="tspan3952">45</tspan></tspan></tspan></text>
<text
     y="-5.3829615e-05"
     id="text3954"
     class="TextShape"><tspan
       style="font-size:353px;font-weight:400;font-family:Liberation Sans"
       id="tspan3956"
       font-weight="400"
       font-size="353px"
       class="TextParagraph"><tspan
         id="tspan3958"
         y="7872"
         x="1512"
         class="TextPosition"><tspan
           style="fill:#000000;stroke:none"
           id="tspan3960">0</tspan></tspan></tspan></text>
<text
     y="-5.3829615e-05"
     id="text3962"
     class="TextShape"><tspan
       style="font-size:353px;font-weight:400;font-family:Liberation Sans"
       id="tspan3964"
       font-weight="400"
       font-size="353px"
       class="TextParagraph"><tspan
         id="tspan3966"
         y="6755"
         x="956"
         class="TextPosition"><tspan
           style="fill:#000000;stroke:none"
           id="tspan3968">5000</tspan></tspan></tspan></text>
<text
     y="-5.3829615e-05"
     id="text3970"
     class="TextShape"><tspan
       style="font-size:353px;font-weight:400;font-family:Liberation Sans"
       id="tspan3972"
       font-weight="400"
       font-size="353px"
       class="TextParagraph"><tspan
         id="tspan3974"
         y="5639"
         x="771"
         class="TextPosition"><tspan
           style="fill:#000000;stroke:none"
           id="tspan3976">10000</tspan></tspan></tspan></text>
<text
     y="-5.3829615e-05"
     id="text3978"
     class="TextShape"><tspan
       style="font-size:353px;font-weight:400;font-family:Liberation Sans"
       id="tspan3980"
       font-weight="400"
       font-size="353px"
       class="TextParagraph"><tspan
         id="tspan3982"
         y="4522"
         x="771"
         class="TextPosition"><tspan
           style="fill:#000000;stroke:none"
           id="tspan3984">15000</tspan></tspan></tspan></text>
<text
     y="-5.3829615e-05"
     id="text3986"
     class="TextShape"><tspan
       style="font-size:353px;font-weight:400;font-family:Liberation Sans"
       id="tspan3988"
       font-weight="400"
       font-size="353px"
       class="TextParagraph"><tspan
         id="tspan3990"
         y="3405"
         x="771"
         class="TextPosition"><tspan
           style="fill:#000000;stroke:none"
           id="tspan3992">20000</tspan></tspan></tspan></text>
<text
     y="-5.3829615e-05"
     id="text3994"
     class="TextShape"><tspan
       style="font-size:353px;font-weight:400;font-family:Liberation Sans"
       id="tspan3996"
       font-weight="400"
       font-size="353px"
       class="TextParagraph"><tspan
         id="tspan3998"
         y="2289"
         x="771"
         class="TextPosition"><tspan
           style="fill:#000000;stroke:none"
           id="tspan4000">25000</tspan></tspan></tspan></text>
<text
     y="-5.3829615e-05"
     id="text4002"
     class="TextShape"><tspan
       style="font-size:353px;font-weight:400;font-family:Liberation Sans"
       id="tspan4004"
       font-weight="400"
       font-size="353px"
       class="TextParagraph"><tspan
         id="tspan4006"
         y="1173"
         x="771"
         class="TextPosition"><tspan
           style="fill:#000000;stroke:none"
           id="tspan4008">30000</tspan></tspan></tspan></text>
<path
     style="fill:none;stroke:#004586;stroke-width:80;stroke-linejoin:round"
     inkscape:connector-curvature="0"
     id="path3870"
     d="m 2144,6995.9999 197,-44 197,-298 197,-241 197,-201 197,137 197,-353 197,-302 197,-336 197,-378 197,-323 197,-318 197,-361 197,-308 197,156 197,-607 197,-144 197,-23 197,-430 197,162 197,-475 197,41 197,284 197,-127 197,-600 197,323 197,4 197,-70 197,461 197,-399 196,-355 197,-27 197,-48 197,46 197,272 197,-240 197,-74 197,-414 197,45 197,-17 197,320" /></g><text
   xml:space="preserve"
   style="font-size:508px;font-style:normal;font-weight:normal;line-height:125%;letter-spacing:0px;word-spacing:0px;fill:#000000;fill-opacity:1;stroke:none;font-family:Sans"
   x="5069.2012"
   y="9192.7383"
   id="text4073"
   sodipodi:linespacing="125%"><tspan
     sodipodi:role="line"
     id="tspan4075"
     x="5069.2012"
     y="9192.7383">Geração</tspan></text>
<text
   xml:space="preserve"
   style="font-size:508px;font-style:normal;font-weight:normal;line-height:125%;letter-spacing:0px;word-spacing:0px;fill:#000000;fill-opacity:1;stroke:none;font-family:Sans"
   x="-5964.1851"
   y="394.64246"
   id="text4073-1"
   sodipodi:linespacing="125%"
   transform="matrix(0,-1,1,0,0,0)"><tspan
     sodipodi:role="line"
     id="tspan4075-0"
     x="-5964.1851"
     y="394.64246">Pontuação</tspan></text>
</svg>